<mxfile host="app.diagrams.net" modified="2022-01-11T14:08:59.822Z" agent="5.0 (Windows NT 10.0; Win64; x64) AppleWebKit/537.36 (KHTML, like Gecko) Chrome/96.0.4664.110 Safari/537.36 OPR/82.0.4227.43" etag="55irNaezALcvoRZwJD3O" version="16.2.4" type="github">
  <diagram id="w67scF_tukUT5Tv7JCe0" name="Page-1">
    <mxGraphModel dx="3652" dy="1793" grid="1" gridSize="10" guides="1" tooltips="1" connect="1" arrows="1" fold="1" page="1" pageScale="1" pageWidth="1169" pageHeight="827" math="0" shadow="0">
      <root>
        <mxCell id="0" />
        <mxCell id="1" parent="0" />
        <mxCell id="TwCu-h7IBBhhvGeWgjjQ-4" value="&lt;span style=&quot;border-bottom: 1px dotted&quot;&gt;Attribute&lt;/span&gt;" style="ellipse;whiteSpace=wrap;html=1;align=center;" parent="1" vertex="1">
          <mxGeometry x="-260" y="245" width="100" height="40" as="geometry" />
        </mxCell>
        <mxCell id="TwCu-h7IBBhhvGeWgjjQ-5" style="edgeStyle=orthogonalEdgeStyle;rounded=0;orthogonalLoop=1;jettySize=auto;html=1;exitX=0.5;exitY=1;exitDx=0;exitDy=0;entryX=0.5;entryY=0;entryDx=0;entryDy=0;strokeColor=none;endArrow=none;endFill=0;" parent="1" source="TwCu-h7IBBhhvGeWgjjQ-7" target="TwCu-h7IBBhhvGeWgjjQ-4" edge="1">
          <mxGeometry relative="1" as="geometry" />
        </mxCell>
        <mxCell id="TwCu-h7IBBhhvGeWgjjQ-6" style="edgeStyle=orthogonalEdgeStyle;rounded=0;orthogonalLoop=1;jettySize=auto;html=1;exitX=0.5;exitY=1;exitDx=0;exitDy=0;entryX=0.5;entryY=0;entryDx=0;entryDy=0;endArrow=none;endFill=0;" parent="1" source="TwCu-h7IBBhhvGeWgjjQ-7" target="TwCu-h7IBBhhvGeWgjjQ-4" edge="1">
          <mxGeometry relative="1" as="geometry" />
        </mxCell>
        <mxCell id="TwCu-h7IBBhhvGeWgjjQ-7" value="Entity" style="shape=ext;margin=3;double=1;whiteSpace=wrap;html=1;align=center;" parent="1" vertex="1">
          <mxGeometry x="-260" y="145" width="100" height="40" as="geometry" />
        </mxCell>
        <mxCell id="TwCu-h7IBBhhvGeWgjjQ-8" value="Attribute" style="ellipse;whiteSpace=wrap;html=1;align=center;" parent="1" vertex="1">
          <mxGeometry x="-260" y="305" width="100" height="40" as="geometry" />
        </mxCell>
        <mxCell id="TwCu-h7IBBhhvGeWgjjQ-9" value="Attribute" style="ellipse;whiteSpace=wrap;html=1;align=center;fontStyle=4;" parent="1" vertex="1">
          <mxGeometry x="-260" y="365" width="100" height="40" as="geometry" />
        </mxCell>
        <mxCell id="TwCu-h7IBBhhvGeWgjjQ-10" value="Relationship" style="shape=rhombus;double=1;perimeter=rhombusPerimeter;whiteSpace=wrap;html=1;align=center;" parent="1" vertex="1">
          <mxGeometry x="-265" y="495" width="120" height="60" as="geometry" />
        </mxCell>
        <mxCell id="TwCu-h7IBBhhvGeWgjjQ-11" value="Relationship" style="shape=rhombus;perimeter=rhombusPerimeter;whiteSpace=wrap;html=1;align=center;" parent="1" vertex="1">
          <mxGeometry x="-270" y="425" width="120" height="60" as="geometry" />
        </mxCell>
        <mxCell id="TwCu-h7IBBhhvGeWgjjQ-12" value="Attribute" style="ellipse;shape=doubleEllipse;margin=3;whiteSpace=wrap;html=1;align=center;" parent="1" vertex="1">
          <mxGeometry x="-260" y="625" width="100" height="40" as="geometry" />
        </mxCell>
        <mxCell id="TwCu-h7IBBhhvGeWgjjQ-13" value="Attribute" style="ellipse;whiteSpace=wrap;html=1;align=center;dashed=1;" parent="1" vertex="1">
          <mxGeometry x="-260" y="565" width="100" height="40" as="geometry" />
        </mxCell>
        <mxCell id="TwCu-h7IBBhhvGeWgjjQ-14" value="Entity" style="whiteSpace=wrap;html=1;align=center;" parent="1" vertex="1">
          <mxGeometry x="-260" y="85" width="100" height="40" as="geometry" />
        </mxCell>
        <mxCell id="TwCu-h7IBBhhvGeWgjjQ-15" value="Weak Entity" style="text;html=1;align=center;verticalAlign=middle;resizable=0;points=[];autosize=1;strokeColor=none;fillColor=none;" parent="1" vertex="1">
          <mxGeometry x="-150" y="155" width="80" height="20" as="geometry" />
        </mxCell>
        <mxCell id="TwCu-h7IBBhhvGeWgjjQ-16" value="partial key" style="text;html=1;align=center;verticalAlign=middle;resizable=0;points=[];autosize=1;strokeColor=none;fillColor=none;" parent="1" vertex="1">
          <mxGeometry x="-155" y="255" width="70" height="20" as="geometry" />
        </mxCell>
        <mxCell id="TwCu-h7IBBhhvGeWgjjQ-17" value="Key Attr" style="text;html=1;align=center;verticalAlign=middle;resizable=0;points=[];autosize=1;strokeColor=none;fillColor=none;" parent="1" vertex="1">
          <mxGeometry x="-160" y="375" width="60" height="20" as="geometry" />
        </mxCell>
        <mxCell id="TwCu-h7IBBhhvGeWgjjQ-18" value="Attr" style="text;html=1;align=center;verticalAlign=middle;resizable=0;points=[];autosize=1;strokeColor=none;fillColor=none;" parent="1" vertex="1">
          <mxGeometry x="-155" y="315" width="30" height="20" as="geometry" />
        </mxCell>
        <mxCell id="TwCu-h7IBBhhvGeWgjjQ-19" value="Multivalues Attr" style="text;html=1;align=center;verticalAlign=middle;resizable=0;points=[];autosize=1;strokeColor=none;fillColor=none;" parent="1" vertex="1">
          <mxGeometry x="-160" y="635" width="100" height="20" as="geometry" />
        </mxCell>
        <mxCell id="TwCu-h7IBBhhvGeWgjjQ-20" value="Derived Attr" style="text;html=1;align=center;verticalAlign=middle;resizable=0;points=[];autosize=1;strokeColor=none;fillColor=none;" parent="1" vertex="1">
          <mxGeometry x="-150" y="575" width="80" height="20" as="geometry" />
        </mxCell>
        <mxCell id="TwCu-h7IBBhhvGeWgjjQ-21" value="identifying R" style="text;html=1;align=center;verticalAlign=middle;resizable=0;points=[];autosize=1;strokeColor=none;fillColor=none;" parent="1" vertex="1">
          <mxGeometry x="-145" y="515" width="80" height="20" as="geometry" />
        </mxCell>
        <mxCell id="TwCu-h7IBBhhvGeWgjjQ-58" style="edgeStyle=orthogonalEdgeStyle;rounded=0;orthogonalLoop=1;jettySize=auto;html=1;exitX=1;exitY=1;exitDx=0;exitDy=0;entryX=0;entryY=0;entryDx=0;entryDy=0;" parent="1" source="TwCu-h7IBBhhvGeWgjjQ-22" target="TwCu-h7IBBhhvGeWgjjQ-26" edge="1">
          <mxGeometry relative="1" as="geometry" />
        </mxCell>
        <mxCell id="TwCu-h7IBBhhvGeWgjjQ-64" style="edgeStyle=orthogonalEdgeStyle;rounded=0;orthogonalLoop=1;jettySize=auto;html=1;entryX=0.5;entryY=0;entryDx=0;entryDy=0;exitX=0.5;exitY=1;exitDx=0;exitDy=0;" parent="1" source="TwCu-h7IBBhhvGeWgjjQ-22" edge="1">
          <mxGeometry relative="1" as="geometry">
            <mxPoint x="634" y="180" as="sourcePoint" />
            <mxPoint x="584" y="260" as="targetPoint" />
          </mxGeometry>
        </mxCell>
        <mxCell id="TwCu-h7IBBhhvGeWgjjQ-22" value="User" style="whiteSpace=wrap;html=1;align=center;" parent="1" vertex="1">
          <mxGeometry x="534" y="130" width="100" height="40" as="geometry" />
        </mxCell>
        <mxCell id="TwCu-h7IBBhhvGeWgjjQ-23" value="Register" style="whiteSpace=wrap;html=1;align=center;" parent="1" vertex="1">
          <mxGeometry x="850" y="30" width="100" height="40" as="geometry" />
        </mxCell>
        <mxCell id="TwCu-h7IBBhhvGeWgjjQ-24" value="Browse" style="whiteSpace=wrap;html=1;align=center;" parent="1" vertex="1">
          <mxGeometry x="860" y="390" width="100" height="40" as="geometry" />
        </mxCell>
        <mxCell id="TwCu-h7IBBhhvGeWgjjQ-56" style="edgeStyle=orthogonalEdgeStyle;rounded=0;orthogonalLoop=1;jettySize=auto;html=1;entryX=0.5;entryY=0;entryDx=0;entryDy=0;" parent="1" source="TwCu-h7IBBhhvGeWgjjQ-26" target="TwCu-h7IBBhhvGeWgjjQ-24" edge="1">
          <mxGeometry relative="1" as="geometry" />
        </mxCell>
        <mxCell id="TwCu-h7IBBhhvGeWgjjQ-57" style="edgeStyle=orthogonalEdgeStyle;rounded=0;orthogonalLoop=1;jettySize=auto;html=1;exitX=1;exitY=0;exitDx=0;exitDy=0;entryX=0.5;entryY=1;entryDx=0;entryDy=0;" parent="1" source="TwCu-h7IBBhhvGeWgjjQ-26" target="TwCu-h7IBBhhvGeWgjjQ-23" edge="1">
          <mxGeometry relative="1" as="geometry" />
        </mxCell>
        <mxCell id="TwCu-h7IBBhhvGeWgjjQ-26" value="Can" style="shape=rhombus;perimeter=rhombusPerimeter;whiteSpace=wrap;html=1;align=center;" parent="1" vertex="1">
          <mxGeometry x="700" y="240" width="90" height="60" as="geometry" />
        </mxCell>
        <mxCell id="TwCu-h7IBBhhvGeWgjjQ-27" value="profile image" style="ellipse;whiteSpace=wrap;html=1;align=center;" parent="1" vertex="1">
          <mxGeometry x="434" y="170" width="100" height="40" as="geometry" />
        </mxCell>
        <mxCell id="TwCu-h7IBBhhvGeWgjjQ-28" value="user_id" style="ellipse;whiteSpace=wrap;html=1;align=center;" parent="1" vertex="1">
          <mxGeometry x="522" y="40" width="100" height="40" as="geometry" />
        </mxCell>
        <mxCell id="TwCu-h7IBBhhvGeWgjjQ-29" value="password" style="ellipse;whiteSpace=wrap;html=1;align=center;" parent="1" vertex="1">
          <mxGeometry x="430" y="120" width="100" height="40" as="geometry" />
        </mxCell>
        <mxCell id="TwCu-h7IBBhhvGeWgjjQ-30" value="label" style="ellipse;whiteSpace=wrap;html=1;align=center;" parent="1" vertex="1">
          <mxGeometry x="470" y="80" width="100" height="40" as="geometry" />
        </mxCell>
        <mxCell id="TwCu-h7IBBhhvGeWgjjQ-31" value="Fname" style="ellipse;whiteSpace=wrap;html=1;align=center;" parent="1" vertex="1">
          <mxGeometry x="580" y="80" width="100" height="40" as="geometry" />
        </mxCell>
        <mxCell id="TwCu-h7IBBhhvGeWgjjQ-32" value="Lname" style="ellipse;whiteSpace=wrap;html=1;align=center;" parent="1" vertex="1">
          <mxGeometry x="650" y="120" width="100" height="40" as="geometry" />
        </mxCell>
        <mxCell id="TwCu-h7IBBhhvGeWgjjQ-34" value="&lt;u&gt;dest_loc&lt;/u&gt;" style="ellipse;whiteSpace=wrap;html=1;align=center;" parent="1" vertex="1">
          <mxGeometry x="980" y="410" width="100" height="40" as="geometry" />
        </mxCell>
        <mxCell id="TwCu-h7IBBhhvGeWgjjQ-35" value="&lt;u&gt;source_loc&lt;/u&gt;" style="ellipse;whiteSpace=wrap;html=1;align=center;" parent="1" vertex="1">
          <mxGeometry x="980" y="360" width="100" height="40" as="geometry" />
        </mxCell>
        <mxCell id="TwCu-h7IBBhhvGeWgjjQ-36" value="&lt;u&gt;date&lt;/u&gt;" style="ellipse;whiteSpace=wrap;html=1;align=center;" parent="1" vertex="1">
          <mxGeometry x="890" y="440" width="100" height="40" as="geometry" />
        </mxCell>
        <mxCell id="TwCu-h7IBBhhvGeWgjjQ-37" value="&lt;u&gt;No_of_Pass&lt;/u&gt;" style="ellipse;whiteSpace=wrap;html=1;align=center;" parent="1" vertex="1">
          <mxGeometry x="780" y="440" width="100" height="40" as="geometry" />
        </mxCell>
        <mxCell id="TwCu-h7IBBhhvGeWgjjQ-39" value="&lt;span style=&quot;background-color: rgb(255 , 3 , 196)&quot;&gt;Default 1&lt;/span&gt;" style="text;html=1;strokeColor=none;fillColor=none;align=center;verticalAlign=middle;whiteSpace=wrap;rounded=0;" parent="1" vertex="1">
          <mxGeometry x="800" y="495" width="60" height="30" as="geometry" />
        </mxCell>
        <mxCell id="TwCu-h7IBBhhvGeWgjjQ-41" value="Lname" style="ellipse;whiteSpace=wrap;html=1;align=center;" parent="1" vertex="1">
          <mxGeometry x="650" y="120" width="100" height="40" as="geometry" />
        </mxCell>
        <mxCell id="TwCu-h7IBBhhvGeWgjjQ-42" value="Fname" style="ellipse;whiteSpace=wrap;html=1;align=center;" parent="1" vertex="1">
          <mxGeometry x="580" y="80" width="100" height="40" as="geometry" />
        </mxCell>
        <mxCell id="TwCu-h7IBBhhvGeWgjjQ-43" value="label" style="ellipse;whiteSpace=wrap;html=1;align=center;" parent="1" vertex="1">
          <mxGeometry x="470" y="80" width="100" height="40" as="geometry" />
        </mxCell>
        <mxCell id="TwCu-h7IBBhhvGeWgjjQ-44" value="Lname" style="ellipse;whiteSpace=wrap;html=1;align=center;" parent="1" vertex="1">
          <mxGeometry x="650" y="120" width="100" height="40" as="geometry" />
        </mxCell>
        <mxCell id="TwCu-h7IBBhhvGeWgjjQ-45" value="Fname" style="ellipse;whiteSpace=wrap;html=1;align=center;" parent="1" vertex="1">
          <mxGeometry x="580" y="80" width="100" height="40" as="geometry" />
        </mxCell>
        <mxCell id="TwCu-h7IBBhhvGeWgjjQ-46" value="label" style="ellipse;whiteSpace=wrap;html=1;align=center;" parent="1" vertex="1">
          <mxGeometry x="470" y="80" width="100" height="40" as="geometry" />
        </mxCell>
        <mxCell id="TwCu-h7IBBhhvGeWgjjQ-47" value="email" style="ellipse;whiteSpace=wrap;html=1;align=center;" parent="1" vertex="1">
          <mxGeometry x="950" y="70" width="100" height="40" as="geometry" />
        </mxCell>
        <mxCell id="TwCu-h7IBBhhvGeWgjjQ-49" value="password" style="ellipse;whiteSpace=wrap;html=1;align=center;" parent="1" vertex="1">
          <mxGeometry x="800" y="-20" width="100" height="40" as="geometry" />
        </mxCell>
        <mxCell id="TwCu-h7IBBhhvGeWgjjQ-50" value="Fname" style="ellipse;whiteSpace=wrap;html=1;align=center;" parent="1" vertex="1">
          <mxGeometry x="580" y="80" width="100" height="40" as="geometry" />
        </mxCell>
        <mxCell id="TwCu-h7IBBhhvGeWgjjQ-51" value="Lname" style="ellipse;whiteSpace=wrap;html=1;align=center;" parent="1" vertex="1">
          <mxGeometry x="650" y="120" width="100" height="40" as="geometry" />
        </mxCell>
        <mxCell id="TwCu-h7IBBhhvGeWgjjQ-52" value="Fname" style="ellipse;whiteSpace=wrap;html=1;align=center;" parent="1" vertex="1">
          <mxGeometry x="910" y="-30" width="100" height="40" as="geometry" />
        </mxCell>
        <mxCell id="TwCu-h7IBBhhvGeWgjjQ-53" value="Lname" style="ellipse;whiteSpace=wrap;html=1;align=center;" parent="1" vertex="1">
          <mxGeometry x="970" y="20" width="100" height="40" as="geometry" />
        </mxCell>
        <mxCell id="TwCu-h7IBBhhvGeWgjjQ-74" style="edgeStyle=orthogonalEdgeStyle;rounded=0;orthogonalLoop=1;jettySize=auto;html=1;exitX=0;exitY=1;exitDx=0;exitDy=0;entryX=0.5;entryY=0;entryDx=0;entryDy=0;fontColor=#000000;" parent="1" source="TwCu-h7IBBhhvGeWgjjQ-68" target="TwCu-h7IBBhhvGeWgjjQ-72" edge="1">
          <mxGeometry relative="1" as="geometry" />
        </mxCell>
        <mxCell id="TwCu-h7IBBhhvGeWgjjQ-75" style="edgeStyle=orthogonalEdgeStyle;rounded=0;orthogonalLoop=1;jettySize=auto;html=1;exitX=1;exitY=1;exitDx=0;exitDy=0;fontColor=#000000;" parent="1" source="TwCu-h7IBBhhvGeWgjjQ-68" edge="1">
          <mxGeometry relative="1" as="geometry">
            <mxPoint x="650" y="360" as="targetPoint" />
          </mxGeometry>
        </mxCell>
        <mxCell id="TwCu-h7IBBhhvGeWgjjQ-68" value="&lt;span style=&quot;background-color: rgb(255 , 255 , 255)&quot;&gt;o&lt;/span&gt;" style="ellipse;whiteSpace=wrap;html=1;aspect=fixed;labelBackgroundColor=#FF03C4;" parent="1" vertex="1">
          <mxGeometry x="559" y="260" width="50" height="50" as="geometry" />
        </mxCell>
        <mxCell id="TwCu-h7IBBhhvGeWgjjQ-72" value="Passanger" style="whiteSpace=wrap;html=1;align=center;" parent="1" vertex="1">
          <mxGeometry x="410" y="360" width="100" height="40" as="geometry" />
        </mxCell>
        <mxCell id="TwCu-h7IBBhhvGeWgjjQ-91" style="edgeStyle=orthogonalEdgeStyle;rounded=0;orthogonalLoop=1;jettySize=auto;html=1;exitX=0.5;exitY=1;exitDx=0;exitDy=0;entryX=0.5;entryY=0;entryDx=0;entryDy=0;fontColor=#000000;" parent="1" source="TwCu-h7IBBhhvGeWgjjQ-73" target="TwCu-h7IBBhhvGeWgjjQ-87" edge="1">
          <mxGeometry relative="1" as="geometry" />
        </mxCell>
        <mxCell id="TwCu-h7IBBhhvGeWgjjQ-102" style="edgeStyle=orthogonalEdgeStyle;rounded=0;orthogonalLoop=1;jettySize=auto;html=1;exitX=0.25;exitY=1;exitDx=0;exitDy=0;entryX=0.5;entryY=0;entryDx=0;entryDy=0;fontColor=#000000;" parent="1" source="TwCu-h7IBBhhvGeWgjjQ-73" target="TwCu-h7IBBhhvGeWgjjQ-80" edge="1">
          <mxGeometry relative="1" as="geometry" />
        </mxCell>
        <mxCell id="TwCu-h7IBBhhvGeWgjjQ-73" value="Driver" style="whiteSpace=wrap;html=1;align=center;" parent="1" vertex="1">
          <mxGeometry x="590" y="340" width="100" height="40" as="geometry" />
        </mxCell>
        <mxCell id="TwCu-h7IBBhhvGeWgjjQ-76" value="Lname" style="ellipse;whiteSpace=wrap;html=1;align=center;" parent="1" vertex="1">
          <mxGeometry x="650" y="120" width="100" height="40" as="geometry" />
        </mxCell>
        <mxCell id="TwCu-h7IBBhhvGeWgjjQ-103" style="edgeStyle=orthogonalEdgeStyle;rounded=0;orthogonalLoop=1;jettySize=auto;html=1;exitX=0.5;exitY=1;exitDx=0;exitDy=0;entryX=0.5;entryY=0;entryDx=0;entryDy=0;fontColor=#000000;" parent="1" source="TwCu-h7IBBhhvGeWgjjQ-80" target="TwCu-h7IBBhhvGeWgjjQ-81" edge="1">
          <mxGeometry relative="1" as="geometry" />
        </mxCell>
        <mxCell id="TwCu-h7IBBhhvGeWgjjQ-80" value="Can Register" style="shape=rhombus;perimeter=rhombusPerimeter;whiteSpace=wrap;html=1;align=center;" parent="1" vertex="1">
          <mxGeometry x="500" y="435" width="90" height="60" as="geometry" />
        </mxCell>
        <mxCell id="TwCu-h7IBBhhvGeWgjjQ-81" value="Journey" style="whiteSpace=wrap;html=1;align=center;" parent="1" vertex="1">
          <mxGeometry x="490" y="525" width="100" height="40" as="geometry" />
        </mxCell>
        <mxCell id="TwCu-h7IBBhhvGeWgjjQ-86" value="Plaka" style="ellipse;whiteSpace=wrap;html=1;align=center;" parent="1" vertex="1">
          <mxGeometry x="380" y="800" width="68" height="40" as="geometry" />
        </mxCell>
        <mxCell id="TwCu-h7IBBhhvGeWgjjQ-92" style="edgeStyle=orthogonalEdgeStyle;rounded=0;orthogonalLoop=1;jettySize=auto;html=1;exitX=0.5;exitY=1;exitDx=0;exitDy=0;fontColor=#000000;" parent="1" source="TwCu-h7IBBhhvGeWgjjQ-87" target="TwCu-h7IBBhhvGeWgjjQ-89" edge="1">
          <mxGeometry relative="1" as="geometry" />
        </mxCell>
        <mxCell id="TwCu-h7IBBhhvGeWgjjQ-87" value="Have" style="shape=rhombus;double=1;perimeter=rhombusPerimeter;whiteSpace=wrap;html=1;align=center;" parent="1" vertex="1">
          <mxGeometry x="640" y="435" width="86" height="60" as="geometry" />
        </mxCell>
        <mxCell id="TwCu-h7IBBhhvGeWgjjQ-93" style="edgeStyle=orthogonalEdgeStyle;rounded=0;orthogonalLoop=1;jettySize=auto;html=1;exitX=0.5;exitY=1;exitDx=0;exitDy=0;entryX=0.5;entryY=0;entryDx=0;entryDy=0;fontColor=#000000;" parent="1" source="TwCu-h7IBBhhvGeWgjjQ-89" target="TwCu-h7IBBhhvGeWgjjQ-90" edge="1">
          <mxGeometry relative="1" as="geometry" />
        </mxCell>
        <mxCell id="TwCu-h7IBBhhvGeWgjjQ-109" style="edgeStyle=orthogonalEdgeStyle;rounded=0;orthogonalLoop=1;jettySize=auto;html=1;exitX=0.75;exitY=1;exitDx=0;exitDy=0;entryX=0.5;entryY=0;entryDx=0;entryDy=0;fontColor=#000000;" parent="1" source="TwCu-h7IBBhhvGeWgjjQ-89" target="TwCu-h7IBBhhvGeWgjjQ-95" edge="1">
          <mxGeometry relative="1" as="geometry" />
        </mxCell>
        <mxCell id="TwCu-h7IBBhhvGeWgjjQ-110" style="edgeStyle=orthogonalEdgeStyle;rounded=0;orthogonalLoop=1;jettySize=auto;html=1;exitX=1;exitY=1;exitDx=0;exitDy=0;entryX=0;entryY=0;entryDx=0;entryDy=0;fontColor=#000000;" parent="1" source="TwCu-h7IBBhhvGeWgjjQ-89" target="TwCu-h7IBBhhvGeWgjjQ-107" edge="1">
          <mxGeometry relative="1" as="geometry" />
        </mxCell>
        <mxCell id="TwCu-h7IBBhhvGeWgjjQ-111" style="edgeStyle=orthogonalEdgeStyle;rounded=0;orthogonalLoop=1;jettySize=auto;html=1;exitX=1;exitY=0.75;exitDx=0;exitDy=0;entryX=0;entryY=0;entryDx=0;entryDy=0;fontColor=#000000;" parent="1" source="TwCu-h7IBBhhvGeWgjjQ-89" target="TwCu-h7IBBhhvGeWgjjQ-97" edge="1">
          <mxGeometry relative="1" as="geometry" />
        </mxCell>
        <mxCell id="TwCu-h7IBBhhvGeWgjjQ-89" value="Car" style="shape=ext;margin=3;double=1;whiteSpace=wrap;html=1;align=center;" parent="1" vertex="1">
          <mxGeometry x="660" y="525" width="100" height="40" as="geometry" />
        </mxCell>
        <mxCell id="TwCu-h7IBBhhvGeWgjjQ-90" value="&lt;span style=&quot;border-bottom: 1px dotted&quot;&gt;Plaka&lt;/span&gt;" style="ellipse;whiteSpace=wrap;html=1;align=center;" parent="1" vertex="1">
          <mxGeometry x="633" y="590" width="100" height="40" as="geometry" />
        </mxCell>
        <mxCell id="TwCu-h7IBBhhvGeWgjjQ-95" value="Car Brand" style="ellipse;whiteSpace=wrap;html=1;align=center;" parent="1" vertex="1">
          <mxGeometry x="690" y="630" width="100" height="40" as="geometry" />
        </mxCell>
        <mxCell id="TwCu-h7IBBhhvGeWgjjQ-97" value="Car Color" style="ellipse;whiteSpace=wrap;html=1;align=center;" parent="1" vertex="1">
          <mxGeometry x="830" y="565" width="100" height="40" as="geometry" />
        </mxCell>
        <mxCell id="TwCu-h7IBBhhvGeWgjjQ-99" value="# of Pass" style="ellipse;whiteSpace=wrap;html=1;align=center;" parent="1" vertex="1">
          <mxGeometry x="500" y="730" width="61" height="40" as="geometry" />
        </mxCell>
        <mxCell id="TwCu-h7IBBhhvGeWgjjQ-100" value="DATE" style="ellipse;whiteSpace=wrap;html=1;align=center;" parent="1" vertex="1">
          <mxGeometry x="561" y="690" width="61" height="40" as="geometry" />
        </mxCell>
        <mxCell id="TwCu-h7IBBhhvGeWgjjQ-101" value="Price" style="ellipse;whiteSpace=wrap;html=1;align=center;" parent="1" vertex="1">
          <mxGeometry x="439" y="770" width="61" height="40" as="geometry" />
        </mxCell>
        <mxCell id="TwCu-h7IBBhhvGeWgjjQ-107" value="Car Model" style="ellipse;whiteSpace=wrap;html=1;align=center;" parent="1" vertex="1">
          <mxGeometry x="780" y="605" width="100" height="40" as="geometry" />
        </mxCell>
        <mxCell id="TwCu-h7IBBhhvGeWgjjQ-113" value="Report" style="whiteSpace=wrap;html=1;align=center;" parent="1" vertex="1">
          <mxGeometry x="1160" y="105" width="100" height="40" as="geometry" />
        </mxCell>
        <mxCell id="TwCu-h7IBBhhvGeWgjjQ-115" value="TEXT/Reason" style="ellipse;whiteSpace=wrap;html=1;align=center;" parent="1" vertex="1">
          <mxGeometry x="1140" y="30" width="100" height="40" as="geometry" />
        </mxCell>
        <mxCell id="TwCu-h7IBBhhvGeWgjjQ-116" value="Fname" style="ellipse;whiteSpace=wrap;html=1;align=center;" parent="1" vertex="1">
          <mxGeometry x="1250" y="45" width="100" height="40" as="geometry" />
        </mxCell>
        <mxCell id="TwCu-h7IBBhhvGeWgjjQ-119" value="&lt;u&gt;Journey ID&lt;/u&gt;" style="ellipse;whiteSpace=wrap;html=1;align=center;" parent="1" vertex="1">
          <mxGeometry x="415" y="405" width="90" height="40" as="geometry" />
        </mxCell>
        <mxCell id="TwCu-h7IBBhhvGeWgjjQ-120" value="Driver" style="ellipse;whiteSpace=wrap;html=1;align=center;" parent="1" vertex="1">
          <mxGeometry x="453.5" y="700" width="61" height="40" as="geometry" />
        </mxCell>
        <mxCell id="TwCu-h7IBBhhvGeWgjjQ-121" value="&lt;u&gt;Journey ID&lt;/u&gt;" style="ellipse;whiteSpace=wrap;html=1;align=center;" parent="1" vertex="1">
          <mxGeometry x="424.5" y="585" width="90" height="40" as="geometry" />
        </mxCell>
        <mxCell id="VUerpIfiDzFvoBNTNiXi-8" value="TEXT/Comment" style="ellipse;whiteSpace=wrap;html=1;align=center;" vertex="1" parent="1">
          <mxGeometry x="240" y="45" width="70" height="40" as="geometry" />
        </mxCell>
        <mxCell id="VUerpIfiDzFvoBNTNiXi-14" style="edgeStyle=none;rounded=0;orthogonalLoop=1;jettySize=auto;html=1;exitX=1;exitY=0.5;exitDx=0;exitDy=0;entryX=0;entryY=0;entryDx=0;entryDy=0;endArrow=none;endFill=0;" edge="1" parent="1" source="VUerpIfiDzFvoBNTNiXi-10" target="TwCu-h7IBBhhvGeWgjjQ-22">
          <mxGeometry relative="1" as="geometry" />
        </mxCell>
        <mxCell id="VUerpIfiDzFvoBNTNiXi-21" value="M" style="edgeLabel;html=1;align=center;verticalAlign=middle;resizable=0;points=[];" vertex="1" connectable="0" parent="VUerpIfiDzFvoBNTNiXi-14">
          <mxGeometry x="-0.5645" y="3" relative="1" as="geometry">
            <mxPoint as="offset" />
          </mxGeometry>
        </mxCell>
        <mxCell id="VUerpIfiDzFvoBNTNiXi-15" style="edgeStyle=none;rounded=0;orthogonalLoop=1;jettySize=auto;html=1;exitX=0;exitY=0.5;exitDx=0;exitDy=0;entryX=0;entryY=1;entryDx=0;entryDy=0;endArrow=none;endFill=0;" edge="1" parent="1" source="VUerpIfiDzFvoBNTNiXi-10" target="TwCu-h7IBBhhvGeWgjjQ-22">
          <mxGeometry relative="1" as="geometry" />
        </mxCell>
        <mxCell id="VUerpIfiDzFvoBNTNiXi-22" value="N" style="edgeLabel;html=1;align=center;verticalAlign=middle;resizable=0;points=[];" vertex="1" connectable="0" parent="VUerpIfiDzFvoBNTNiXi-15">
          <mxGeometry x="-0.4236" y="-4" relative="1" as="geometry">
            <mxPoint as="offset" />
          </mxGeometry>
        </mxCell>
        <mxCell id="VUerpIfiDzFvoBNTNiXi-10" value="Rate" style="shape=rhombus;perimeter=rhombusPerimeter;whiteSpace=wrap;html=1;align=center;rotation=-35;" vertex="1" parent="1">
          <mxGeometry x="310" y="50" width="90" height="60" as="geometry" />
        </mxCell>
        <mxCell id="VUerpIfiDzFvoBNTNiXi-16" value="&lt;u&gt;rated_user_id&lt;/u&gt;" style="ellipse;whiteSpace=wrap;html=1;align=center;" vertex="1" parent="1">
          <mxGeometry x="280" y="125" width="50" height="40" as="geometry" />
        </mxCell>
        <mxCell id="VUerpIfiDzFvoBNTNiXi-18" value="&lt;u&gt;Journey ID&lt;/u&gt;" style="ellipse;whiteSpace=wrap;html=1;align=center;" vertex="1" parent="1">
          <mxGeometry x="160" y="85" width="90" height="40" as="geometry" />
        </mxCell>
        <mxCell id="VUerpIfiDzFvoBNTNiXi-20" style="edgeStyle=none;rounded=0;orthogonalLoop=1;jettySize=auto;html=1;exitX=0;exitY=1;exitDx=0;exitDy=0;entryX=0;entryY=0.5;entryDx=0;entryDy=0;endArrow=none;endFill=0;" edge="1" parent="1" source="VUerpIfiDzFvoBNTNiXi-16" target="VUerpIfiDzFvoBNTNiXi-16">
          <mxGeometry relative="1" as="geometry" />
        </mxCell>
        <mxCell id="VUerpIfiDzFvoBNTNiXi-23" value="Journey" style="whiteSpace=wrap;html=1;align=center;" vertex="1" parent="1">
          <mxGeometry x="150" y="295" width="100" height="40" as="geometry" />
        </mxCell>
        <mxCell id="VUerpIfiDzFvoBNTNiXi-24" value="Partipage" style="shape=rhombus;perimeter=rhombusPerimeter;whiteSpace=wrap;html=1;align=center;" vertex="1" parent="1">
          <mxGeometry x="155" y="230" width="90" height="60" as="geometry" />
        </mxCell>
        <mxCell id="VUerpIfiDzFvoBNTNiXi-25" value="&lt;u&gt;Journey ID&lt;/u&gt;" style="ellipse;whiteSpace=wrap;html=1;align=center;" vertex="1" parent="1">
          <mxGeometry x="20" y="340" width="90" height="40" as="geometry" />
        </mxCell>
        <mxCell id="VUerpIfiDzFvoBNTNiXi-32" value="Car Brand" style="ellipse;whiteSpace=wrap;html=1;align=center;" vertex="1" parent="1">
          <mxGeometry x="570" y="-40" width="100" height="40" as="geometry" />
        </mxCell>
        <mxCell id="VUerpIfiDzFvoBNTNiXi-33" value="Car Color" style="ellipse;whiteSpace=wrap;html=1;align=center;" vertex="1" parent="1">
          <mxGeometry x="680" y="-110" width="100" height="40" as="geometry" />
        </mxCell>
        <mxCell id="VUerpIfiDzFvoBNTNiXi-34" value="Car Model" style="ellipse;whiteSpace=wrap;html=1;align=center;" vertex="1" parent="1">
          <mxGeometry x="640" y="-70" width="100" height="40" as="geometry" />
        </mxCell>
        <mxCell id="VUerpIfiDzFvoBNTNiXi-35" value="Role" style="ellipse;whiteSpace=wrap;html=1;align=center;" vertex="1" parent="1">
          <mxGeometry x="220" y="340" width="70" height="40" as="geometry" />
        </mxCell>
        <mxCell id="VUerpIfiDzFvoBNTNiXi-36" value="user_id" style="ellipse;whiteSpace=wrap;html=1;align=center;" vertex="1" parent="1">
          <mxGeometry x="430" y="-100" width="100" height="40" as="geometry" />
        </mxCell>
        <mxCell id="VUerpIfiDzFvoBNTNiXi-38" style="edgeStyle=none;rounded=0;orthogonalLoop=1;jettySize=auto;html=1;exitX=0;exitY=0.5;exitDx=0;exitDy=0;entryX=0.5;entryY=0;entryDx=0;entryDy=0;endArrow=none;endFill=0;" edge="1" parent="1" source="VUerpIfiDzFvoBNTNiXi-37" target="VUerpIfiDzFvoBNTNiXi-36">
          <mxGeometry relative="1" as="geometry" />
        </mxCell>
        <mxCell id="VUerpIfiDzFvoBNTNiXi-39" style="edgeStyle=none;rounded=0;orthogonalLoop=1;jettySize=auto;html=1;exitX=0.25;exitY=1;exitDx=0;exitDy=0;entryX=0.5;entryY=0;entryDx=0;entryDy=0;endArrow=none;endFill=0;" edge="1" parent="1" source="VUerpIfiDzFvoBNTNiXi-37" target="VUerpIfiDzFvoBNTNiXi-43">
          <mxGeometry relative="1" as="geometry">
            <mxPoint x="543" y="-70" as="targetPoint" />
          </mxGeometry>
        </mxCell>
        <mxCell id="VUerpIfiDzFvoBNTNiXi-40" style="edgeStyle=none;rounded=0;orthogonalLoop=1;jettySize=auto;html=1;exitX=0.5;exitY=1;exitDx=0;exitDy=0;entryX=0.5;entryY=0;entryDx=0;entryDy=0;endArrow=none;endFill=0;" edge="1" parent="1" source="VUerpIfiDzFvoBNTNiXi-37" target="VUerpIfiDzFvoBNTNiXi-32">
          <mxGeometry relative="1" as="geometry" />
        </mxCell>
        <mxCell id="VUerpIfiDzFvoBNTNiXi-41" style="edgeStyle=none;rounded=0;orthogonalLoop=1;jettySize=auto;html=1;exitX=0.75;exitY=1;exitDx=0;exitDy=0;entryX=0;entryY=0;entryDx=0;entryDy=0;endArrow=none;endFill=0;" edge="1" parent="1" source="VUerpIfiDzFvoBNTNiXi-37" target="VUerpIfiDzFvoBNTNiXi-34">
          <mxGeometry relative="1" as="geometry" />
        </mxCell>
        <mxCell id="VUerpIfiDzFvoBNTNiXi-42" style="edgeStyle=none;rounded=0;orthogonalLoop=1;jettySize=auto;html=1;exitX=1;exitY=0.5;exitDx=0;exitDy=0;entryX=0;entryY=0;entryDx=0;entryDy=0;endArrow=none;endFill=0;" edge="1" parent="1" source="VUerpIfiDzFvoBNTNiXi-37" target="VUerpIfiDzFvoBNTNiXi-33">
          <mxGeometry relative="1" as="geometry" />
        </mxCell>
        <mxCell id="VUerpIfiDzFvoBNTNiXi-37" value="Car" style="whiteSpace=wrap;html=1;align=center;" vertex="1" parent="1">
          <mxGeometry x="540" y="-150" width="100" height="40" as="geometry" />
        </mxCell>
        <mxCell id="VUerpIfiDzFvoBNTNiXi-43" value="&lt;u&gt;Plaka&lt;/u&gt;" style="ellipse;whiteSpace=wrap;html=1;align=center;" vertex="1" parent="1">
          <mxGeometry x="485.5" y="-60" width="90" height="40" as="geometry" />
        </mxCell>
        <mxCell id="VUerpIfiDzFvoBNTNiXi-44" value="&lt;font style=&quot;font-size: 72px&quot;&gt;DENEME 1&lt;/font&gt;" style="text;html=1;align=center;verticalAlign=middle;resizable=0;points=[];autosize=1;strokeColor=none;fillColor=none;" vertex="1" parent="1">
          <mxGeometry x="382" y="-260" width="380" height="40" as="geometry" />
        </mxCell>
        <mxCell id="VUerpIfiDzFvoBNTNiXi-45" style="edgeStyle=orthogonalEdgeStyle;rounded=0;orthogonalLoop=1;jettySize=auto;html=1;exitX=1;exitY=1;exitDx=0;exitDy=0;entryX=0;entryY=0;entryDx=0;entryDy=0;" edge="1" parent="1" source="VUerpIfiDzFvoBNTNiXi-47" target="VUerpIfiDzFvoBNTNiXi-52">
          <mxGeometry relative="1" as="geometry" />
        </mxCell>
        <mxCell id="VUerpIfiDzFvoBNTNiXi-46" style="edgeStyle=orthogonalEdgeStyle;rounded=0;orthogonalLoop=1;jettySize=auto;html=1;entryX=0.5;entryY=0;entryDx=0;entryDy=0;exitX=0.5;exitY=1;exitDx=0;exitDy=0;" edge="1" parent="1" source="VUerpIfiDzFvoBNTNiXi-47">
          <mxGeometry relative="1" as="geometry">
            <mxPoint x="589" y="1520" as="sourcePoint" />
            <mxPoint x="539" y="1600" as="targetPoint" />
            <Array as="points">
              <mxPoint x="539" y="1540" />
              <mxPoint x="539" y="1540" />
            </Array>
          </mxGeometry>
        </mxCell>
        <mxCell id="VUerpIfiDzFvoBNTNiXi-212" style="edgeStyle=none;rounded=0;orthogonalLoop=1;jettySize=auto;html=1;exitX=0.25;exitY=1;exitDx=0;exitDy=0;entryX=1;entryY=0.5;entryDx=0;entryDy=0;fontSize=72;endArrow=none;endFill=0;" edge="1" parent="1" source="VUerpIfiDzFvoBNTNiXi-47" target="VUerpIfiDzFvoBNTNiXi-118">
          <mxGeometry relative="1" as="geometry">
            <Array as="points">
              <mxPoint x="490" y="1600" />
            </Array>
          </mxGeometry>
        </mxCell>
        <mxCell id="VUerpIfiDzFvoBNTNiXi-47" value="User" style="whiteSpace=wrap;html=1;align=center;" vertex="1" parent="1">
          <mxGeometry x="489" y="1470" width="100" height="40" as="geometry" />
        </mxCell>
        <mxCell id="VUerpIfiDzFvoBNTNiXi-48" value="Register" style="whiteSpace=wrap;html=1;align=center;" vertex="1" parent="1">
          <mxGeometry x="805" y="1370" width="100" height="40" as="geometry" />
        </mxCell>
        <mxCell id="VUerpIfiDzFvoBNTNiXi-49" value="Browse" style="whiteSpace=wrap;html=1;align=center;" vertex="1" parent="1">
          <mxGeometry x="815" y="1730" width="100" height="40" as="geometry" />
        </mxCell>
        <mxCell id="VUerpIfiDzFvoBNTNiXi-50" style="edgeStyle=orthogonalEdgeStyle;rounded=0;orthogonalLoop=1;jettySize=auto;html=1;entryX=0.5;entryY=0;entryDx=0;entryDy=0;" edge="1" parent="1" source="VUerpIfiDzFvoBNTNiXi-52" target="VUerpIfiDzFvoBNTNiXi-49">
          <mxGeometry relative="1" as="geometry" />
        </mxCell>
        <mxCell id="VUerpIfiDzFvoBNTNiXi-51" style="edgeStyle=orthogonalEdgeStyle;rounded=0;orthogonalLoop=1;jettySize=auto;html=1;exitX=1;exitY=0;exitDx=0;exitDy=0;entryX=0.5;entryY=1;entryDx=0;entryDy=0;" edge="1" parent="1" source="VUerpIfiDzFvoBNTNiXi-52" target="VUerpIfiDzFvoBNTNiXi-48">
          <mxGeometry relative="1" as="geometry" />
        </mxCell>
        <mxCell id="VUerpIfiDzFvoBNTNiXi-52" value="Can" style="shape=rhombus;perimeter=rhombusPerimeter;whiteSpace=wrap;html=1;align=center;" vertex="1" parent="1">
          <mxGeometry x="655" y="1580" width="90" height="60" as="geometry" />
        </mxCell>
        <mxCell id="VUerpIfiDzFvoBNTNiXi-53" value="profile image" style="ellipse;whiteSpace=wrap;html=1;align=center;" vertex="1" parent="1">
          <mxGeometry x="389" y="1510" width="100" height="40" as="geometry" />
        </mxCell>
        <mxCell id="VUerpIfiDzFvoBNTNiXi-54" value="user_id" style="ellipse;whiteSpace=wrap;html=1;align=center;" vertex="1" parent="1">
          <mxGeometry x="477" y="1380" width="100" height="40" as="geometry" />
        </mxCell>
        <mxCell id="VUerpIfiDzFvoBNTNiXi-55" value="password" style="ellipse;whiteSpace=wrap;html=1;align=center;" vertex="1" parent="1">
          <mxGeometry x="385" y="1460" width="100" height="40" as="geometry" />
        </mxCell>
        <mxCell id="VUerpIfiDzFvoBNTNiXi-56" value="label" style="ellipse;whiteSpace=wrap;html=1;align=center;" vertex="1" parent="1">
          <mxGeometry x="425" y="1420" width="100" height="40" as="geometry" />
        </mxCell>
        <mxCell id="VUerpIfiDzFvoBNTNiXi-57" value="Fname" style="ellipse;whiteSpace=wrap;html=1;align=center;" vertex="1" parent="1">
          <mxGeometry x="535" y="1420" width="100" height="40" as="geometry" />
        </mxCell>
        <mxCell id="VUerpIfiDzFvoBNTNiXi-58" value="Lname" style="ellipse;whiteSpace=wrap;html=1;align=center;" vertex="1" parent="1">
          <mxGeometry x="605" y="1460" width="100" height="40" as="geometry" />
        </mxCell>
        <mxCell id="VUerpIfiDzFvoBNTNiXi-59" value="&lt;u&gt;dest_loc&lt;/u&gt;" style="ellipse;whiteSpace=wrap;html=1;align=center;" vertex="1" parent="1">
          <mxGeometry x="935" y="1750" width="100" height="40" as="geometry" />
        </mxCell>
        <mxCell id="VUerpIfiDzFvoBNTNiXi-60" value="&lt;u&gt;source_loc&lt;/u&gt;" style="ellipse;whiteSpace=wrap;html=1;align=center;" vertex="1" parent="1">
          <mxGeometry x="935" y="1700" width="100" height="40" as="geometry" />
        </mxCell>
        <mxCell id="VUerpIfiDzFvoBNTNiXi-61" value="&lt;u&gt;date&lt;/u&gt;" style="ellipse;whiteSpace=wrap;html=1;align=center;" vertex="1" parent="1">
          <mxGeometry x="845" y="1780" width="100" height="40" as="geometry" />
        </mxCell>
        <mxCell id="VUerpIfiDzFvoBNTNiXi-62" value="&lt;u&gt;No_of_Pass&lt;/u&gt;" style="ellipse;whiteSpace=wrap;html=1;align=center;" vertex="1" parent="1">
          <mxGeometry x="735" y="1780" width="100" height="40" as="geometry" />
        </mxCell>
        <mxCell id="VUerpIfiDzFvoBNTNiXi-64" value="Lname" style="ellipse;whiteSpace=wrap;html=1;align=center;" vertex="1" parent="1">
          <mxGeometry x="605" y="1460" width="100" height="40" as="geometry" />
        </mxCell>
        <mxCell id="VUerpIfiDzFvoBNTNiXi-65" value="Fname" style="ellipse;whiteSpace=wrap;html=1;align=center;" vertex="1" parent="1">
          <mxGeometry x="535" y="1420" width="100" height="40" as="geometry" />
        </mxCell>
        <mxCell id="VUerpIfiDzFvoBNTNiXi-66" value="label" style="ellipse;whiteSpace=wrap;html=1;align=center;" vertex="1" parent="1">
          <mxGeometry x="425" y="1420" width="100" height="40" as="geometry" />
        </mxCell>
        <mxCell id="VUerpIfiDzFvoBNTNiXi-67" value="Lname" style="ellipse;whiteSpace=wrap;html=1;align=center;" vertex="1" parent="1">
          <mxGeometry x="605" y="1460" width="100" height="40" as="geometry" />
        </mxCell>
        <mxCell id="VUerpIfiDzFvoBNTNiXi-68" value="Fname" style="ellipse;whiteSpace=wrap;html=1;align=center;" vertex="1" parent="1">
          <mxGeometry x="535" y="1420" width="100" height="40" as="geometry" />
        </mxCell>
        <mxCell id="VUerpIfiDzFvoBNTNiXi-69" value="label" style="ellipse;whiteSpace=wrap;html=1;align=center;" vertex="1" parent="1">
          <mxGeometry x="425" y="1420" width="100" height="40" as="geometry" />
        </mxCell>
        <mxCell id="VUerpIfiDzFvoBNTNiXi-70" value="email" style="ellipse;whiteSpace=wrap;html=1;align=center;" vertex="1" parent="1">
          <mxGeometry x="905" y="1410" width="100" height="40" as="geometry" />
        </mxCell>
        <mxCell id="VUerpIfiDzFvoBNTNiXi-71" value="password" style="ellipse;whiteSpace=wrap;html=1;align=center;" vertex="1" parent="1">
          <mxGeometry x="755" y="1320" width="100" height="40" as="geometry" />
        </mxCell>
        <mxCell id="VUerpIfiDzFvoBNTNiXi-72" value="Fname" style="ellipse;whiteSpace=wrap;html=1;align=center;" vertex="1" parent="1">
          <mxGeometry x="535" y="1420" width="100" height="40" as="geometry" />
        </mxCell>
        <mxCell id="VUerpIfiDzFvoBNTNiXi-73" value="Lname" style="ellipse;whiteSpace=wrap;html=1;align=center;" vertex="1" parent="1">
          <mxGeometry x="605" y="1460" width="100" height="40" as="geometry" />
        </mxCell>
        <mxCell id="VUerpIfiDzFvoBNTNiXi-74" value="Fname" style="ellipse;whiteSpace=wrap;html=1;align=center;" vertex="1" parent="1">
          <mxGeometry x="865" y="1310" width="100" height="40" as="geometry" />
        </mxCell>
        <mxCell id="VUerpIfiDzFvoBNTNiXi-75" value="Lname" style="ellipse;whiteSpace=wrap;html=1;align=center;" vertex="1" parent="1">
          <mxGeometry x="925" y="1360" width="100" height="40" as="geometry" />
        </mxCell>
        <mxCell id="VUerpIfiDzFvoBNTNiXi-83" value="Lname" style="ellipse;whiteSpace=wrap;html=1;align=center;" vertex="1" parent="1">
          <mxGeometry x="605" y="1460" width="100" height="40" as="geometry" />
        </mxCell>
        <mxCell id="VUerpIfiDzFvoBNTNiXi-87" value="Plaka" style="ellipse;whiteSpace=wrap;html=1;align=center;" vertex="1" parent="1">
          <mxGeometry x="-70" y="1840" width="68" height="40" as="geometry" />
        </mxCell>
        <mxCell id="VUerpIfiDzFvoBNTNiXi-98" value="# of Pass" style="ellipse;whiteSpace=wrap;html=1;align=center;" vertex="1" parent="1">
          <mxGeometry x="50" y="1770" width="61" height="40" as="geometry" />
        </mxCell>
        <mxCell id="VUerpIfiDzFvoBNTNiXi-99" value="DATE" style="ellipse;whiteSpace=wrap;html=1;align=center;" vertex="1" parent="1">
          <mxGeometry x="111" y="1730" width="61" height="40" as="geometry" />
        </mxCell>
        <mxCell id="VUerpIfiDzFvoBNTNiXi-100" value="Price" style="ellipse;whiteSpace=wrap;html=1;align=center;" vertex="1" parent="1">
          <mxGeometry x="-11" y="1810" width="61" height="40" as="geometry" />
        </mxCell>
        <mxCell id="VUerpIfiDzFvoBNTNiXi-102" value="Report" style="whiteSpace=wrap;html=1;align=center;" vertex="1" parent="1">
          <mxGeometry x="1115" y="1445" width="100" height="40" as="geometry" />
        </mxCell>
        <mxCell id="VUerpIfiDzFvoBNTNiXi-103" value="TEXT/Reason" style="ellipse;whiteSpace=wrap;html=1;align=center;" vertex="1" parent="1">
          <mxGeometry x="1095" y="1370" width="100" height="40" as="geometry" />
        </mxCell>
        <mxCell id="VUerpIfiDzFvoBNTNiXi-104" value="Fname" style="ellipse;whiteSpace=wrap;html=1;align=center;" vertex="1" parent="1">
          <mxGeometry x="1205" y="1385" width="100" height="40" as="geometry" />
        </mxCell>
        <mxCell id="VUerpIfiDzFvoBNTNiXi-106" value="Driver" style="ellipse;whiteSpace=wrap;html=1;align=center;" vertex="1" parent="1">
          <mxGeometry x="3.5" y="1740" width="61" height="40" as="geometry" />
        </mxCell>
        <mxCell id="VUerpIfiDzFvoBNTNiXi-108" value="TEXT/Comment" style="ellipse;whiteSpace=wrap;html=1;align=center;" vertex="1" parent="1">
          <mxGeometry x="195" y="1385" width="70" height="40" as="geometry" />
        </mxCell>
        <mxCell id="VUerpIfiDzFvoBNTNiXi-109" style="edgeStyle=none;rounded=0;orthogonalLoop=1;jettySize=auto;html=1;exitX=1;exitY=0.5;exitDx=0;exitDy=0;entryX=0;entryY=0;entryDx=0;entryDy=0;endArrow=none;endFill=0;" edge="1" parent="1" source="VUerpIfiDzFvoBNTNiXi-113" target="VUerpIfiDzFvoBNTNiXi-47">
          <mxGeometry relative="1" as="geometry" />
        </mxCell>
        <mxCell id="VUerpIfiDzFvoBNTNiXi-110" value="M" style="edgeLabel;html=1;align=center;verticalAlign=middle;resizable=0;points=[];" vertex="1" connectable="0" parent="VUerpIfiDzFvoBNTNiXi-109">
          <mxGeometry x="-0.5645" y="3" relative="1" as="geometry">
            <mxPoint as="offset" />
          </mxGeometry>
        </mxCell>
        <mxCell id="VUerpIfiDzFvoBNTNiXi-111" style="edgeStyle=none;rounded=0;orthogonalLoop=1;jettySize=auto;html=1;exitX=0;exitY=0.5;exitDx=0;exitDy=0;entryX=0;entryY=1;entryDx=0;entryDy=0;endArrow=none;endFill=0;" edge="1" parent="1" source="VUerpIfiDzFvoBNTNiXi-113" target="VUerpIfiDzFvoBNTNiXi-47">
          <mxGeometry relative="1" as="geometry" />
        </mxCell>
        <mxCell id="VUerpIfiDzFvoBNTNiXi-112" value="N" style="edgeLabel;html=1;align=center;verticalAlign=middle;resizable=0;points=[];" vertex="1" connectable="0" parent="VUerpIfiDzFvoBNTNiXi-111">
          <mxGeometry x="-0.4236" y="-4" relative="1" as="geometry">
            <mxPoint as="offset" />
          </mxGeometry>
        </mxCell>
        <mxCell id="VUerpIfiDzFvoBNTNiXi-113" value="Rate" style="shape=rhombus;perimeter=rhombusPerimeter;whiteSpace=wrap;html=1;align=center;rotation=-35;" vertex="1" parent="1">
          <mxGeometry x="265" y="1390" width="90" height="60" as="geometry" />
        </mxCell>
        <mxCell id="VUerpIfiDzFvoBNTNiXi-114" value="&lt;u&gt;rated_user_id&lt;/u&gt;" style="ellipse;whiteSpace=wrap;html=1;align=center;" vertex="1" parent="1">
          <mxGeometry x="235" y="1465" width="50" height="40" as="geometry" />
        </mxCell>
        <mxCell id="VUerpIfiDzFvoBNTNiXi-115" value="&lt;u&gt;Journey ID&lt;/u&gt;" style="ellipse;whiteSpace=wrap;html=1;align=center;" vertex="1" parent="1">
          <mxGeometry x="115" y="1425" width="90" height="40" as="geometry" />
        </mxCell>
        <mxCell id="VUerpIfiDzFvoBNTNiXi-116" style="edgeStyle=none;rounded=0;orthogonalLoop=1;jettySize=auto;html=1;exitX=0;exitY=1;exitDx=0;exitDy=0;entryX=0;entryY=0.5;entryDx=0;entryDy=0;endArrow=none;endFill=0;" edge="1" parent="1" source="VUerpIfiDzFvoBNTNiXi-114" target="VUerpIfiDzFvoBNTNiXi-114">
          <mxGeometry relative="1" as="geometry" />
        </mxCell>
        <mxCell id="VUerpIfiDzFvoBNTNiXi-117" value="Journey" style="whiteSpace=wrap;html=1;align=center;" vertex="1" parent="1">
          <mxGeometry x="100" y="1650" width="100" height="40" as="geometry" />
        </mxCell>
        <mxCell id="VUerpIfiDzFvoBNTNiXi-118" value="Participage" style="shape=rhombus;perimeter=rhombusPerimeter;whiteSpace=wrap;html=1;align=center;" vertex="1" parent="1">
          <mxGeometry x="110" y="1570" width="90" height="60" as="geometry" />
        </mxCell>
        <mxCell id="VUerpIfiDzFvoBNTNiXi-119" value="&lt;u&gt;Journey ID&lt;/u&gt;" style="ellipse;whiteSpace=wrap;html=1;align=center;" vertex="1" parent="1">
          <mxGeometry x="-25" y="1680" width="90" height="40" as="geometry" />
        </mxCell>
        <mxCell id="VUerpIfiDzFvoBNTNiXi-120" value="Car Brand" style="ellipse;whiteSpace=wrap;html=1;align=center;" vertex="1" parent="1">
          <mxGeometry x="412" y="1860" width="100" height="40" as="geometry" />
        </mxCell>
        <mxCell id="VUerpIfiDzFvoBNTNiXi-121" value="Car Color" style="ellipse;whiteSpace=wrap;html=1;align=center;" vertex="1" parent="1">
          <mxGeometry x="522" y="1790" width="100" height="40" as="geometry" />
        </mxCell>
        <mxCell id="VUerpIfiDzFvoBNTNiXi-122" value="Car Model" style="ellipse;whiteSpace=wrap;html=1;align=center;" vertex="1" parent="1">
          <mxGeometry x="482" y="1830" width="100" height="40" as="geometry" />
        </mxCell>
        <mxCell id="VUerpIfiDzFvoBNTNiXi-123" value="Role" style="ellipse;whiteSpace=wrap;html=1;align=center;" vertex="1" parent="1">
          <mxGeometry x="175" y="1710" width="70" height="40" as="geometry" />
        </mxCell>
        <mxCell id="VUerpIfiDzFvoBNTNiXi-126" style="edgeStyle=none;rounded=0;orthogonalLoop=1;jettySize=auto;html=1;exitX=0.25;exitY=1;exitDx=0;exitDy=0;entryX=0.5;entryY=0;entryDx=0;entryDy=0;endArrow=none;endFill=0;" edge="1" parent="1" source="VUerpIfiDzFvoBNTNiXi-130" target="VUerpIfiDzFvoBNTNiXi-131">
          <mxGeometry relative="1" as="geometry">
            <mxPoint x="385" y="1830" as="targetPoint" />
          </mxGeometry>
        </mxCell>
        <mxCell id="VUerpIfiDzFvoBNTNiXi-127" style="edgeStyle=none;rounded=0;orthogonalLoop=1;jettySize=auto;html=1;exitX=0.5;exitY=1;exitDx=0;exitDy=0;entryX=0.5;entryY=0;entryDx=0;entryDy=0;endArrow=none;endFill=0;" edge="1" parent="1" source="VUerpIfiDzFvoBNTNiXi-130" target="VUerpIfiDzFvoBNTNiXi-120">
          <mxGeometry relative="1" as="geometry" />
        </mxCell>
        <mxCell id="VUerpIfiDzFvoBNTNiXi-128" style="edgeStyle=none;rounded=0;orthogonalLoop=1;jettySize=auto;html=1;exitX=0.75;exitY=1;exitDx=0;exitDy=0;entryX=0;entryY=0;entryDx=0;entryDy=0;endArrow=none;endFill=0;" edge="1" parent="1" source="VUerpIfiDzFvoBNTNiXi-130" target="VUerpIfiDzFvoBNTNiXi-122">
          <mxGeometry relative="1" as="geometry" />
        </mxCell>
        <mxCell id="VUerpIfiDzFvoBNTNiXi-129" style="edgeStyle=none;rounded=0;orthogonalLoop=1;jettySize=auto;html=1;exitX=1;exitY=0.5;exitDx=0;exitDy=0;entryX=0;entryY=0;entryDx=0;entryDy=0;endArrow=none;endFill=0;" edge="1" parent="1" source="VUerpIfiDzFvoBNTNiXi-130" target="VUerpIfiDzFvoBNTNiXi-121">
          <mxGeometry relative="1" as="geometry" />
        </mxCell>
        <mxCell id="VUerpIfiDzFvoBNTNiXi-130" value="Car" style="whiteSpace=wrap;html=1;align=center;" vertex="1" parent="1">
          <mxGeometry x="382" y="1750" width="100" height="40" as="geometry" />
        </mxCell>
        <mxCell id="VUerpIfiDzFvoBNTNiXi-131" value="&lt;u&gt;Plaka&lt;/u&gt;" style="ellipse;whiteSpace=wrap;html=1;align=center;" vertex="1" parent="1">
          <mxGeometry x="327.5" y="1840" width="90" height="40" as="geometry" />
        </mxCell>
        <mxCell id="VUerpIfiDzFvoBNTNiXi-132" value="&lt;font style=&quot;font-size: 72px&quot;&gt;DENEME 2&lt;/font&gt;" style="text;html=1;align=center;verticalAlign=middle;resizable=0;points=[];autosize=1;strokeColor=none;fillColor=none;" vertex="1" parent="1">
          <mxGeometry x="337" y="1080" width="380" height="40" as="geometry" />
        </mxCell>
        <mxCell id="VUerpIfiDzFvoBNTNiXi-169" value="&lt;span style=&quot;border-bottom: 1px dotted&quot;&gt;Attribute&lt;/span&gt;" style="ellipse;whiteSpace=wrap;html=1;align=center;" vertex="1" parent="1">
          <mxGeometry x="-325" y="1390" width="100" height="40" as="geometry" />
        </mxCell>
        <mxCell id="VUerpIfiDzFvoBNTNiXi-170" style="edgeStyle=orthogonalEdgeStyle;rounded=0;orthogonalLoop=1;jettySize=auto;html=1;exitX=0.5;exitY=1;exitDx=0;exitDy=0;entryX=0.5;entryY=0;entryDx=0;entryDy=0;strokeColor=none;endArrow=none;endFill=0;" edge="1" parent="1" source="VUerpIfiDzFvoBNTNiXi-172" target="VUerpIfiDzFvoBNTNiXi-169">
          <mxGeometry relative="1" as="geometry" />
        </mxCell>
        <mxCell id="VUerpIfiDzFvoBNTNiXi-171" style="edgeStyle=orthogonalEdgeStyle;rounded=0;orthogonalLoop=1;jettySize=auto;html=1;exitX=0.5;exitY=1;exitDx=0;exitDy=0;entryX=0.5;entryY=0;entryDx=0;entryDy=0;endArrow=none;endFill=0;" edge="1" parent="1" source="VUerpIfiDzFvoBNTNiXi-172" target="VUerpIfiDzFvoBNTNiXi-169">
          <mxGeometry relative="1" as="geometry" />
        </mxCell>
        <mxCell id="VUerpIfiDzFvoBNTNiXi-172" value="Entity" style="shape=ext;margin=3;double=1;whiteSpace=wrap;html=1;align=center;" vertex="1" parent="1">
          <mxGeometry x="-325" y="1290" width="100" height="40" as="geometry" />
        </mxCell>
        <mxCell id="VUerpIfiDzFvoBNTNiXi-173" value="Attribute" style="ellipse;whiteSpace=wrap;html=1;align=center;" vertex="1" parent="1">
          <mxGeometry x="-325" y="1450" width="100" height="40" as="geometry" />
        </mxCell>
        <mxCell id="VUerpIfiDzFvoBNTNiXi-174" value="Attribute" style="ellipse;whiteSpace=wrap;html=1;align=center;fontStyle=4;" vertex="1" parent="1">
          <mxGeometry x="-325" y="1510" width="100" height="40" as="geometry" />
        </mxCell>
        <mxCell id="VUerpIfiDzFvoBNTNiXi-175" value="Relationship" style="shape=rhombus;double=1;perimeter=rhombusPerimeter;whiteSpace=wrap;html=1;align=center;" vertex="1" parent="1">
          <mxGeometry x="-330" y="1640" width="120" height="60" as="geometry" />
        </mxCell>
        <mxCell id="VUerpIfiDzFvoBNTNiXi-176" value="Relationship" style="shape=rhombus;perimeter=rhombusPerimeter;whiteSpace=wrap;html=1;align=center;" vertex="1" parent="1">
          <mxGeometry x="-335" y="1570" width="120" height="60" as="geometry" />
        </mxCell>
        <mxCell id="VUerpIfiDzFvoBNTNiXi-177" value="Attribute" style="ellipse;shape=doubleEllipse;margin=3;whiteSpace=wrap;html=1;align=center;" vertex="1" parent="1">
          <mxGeometry x="-325" y="1770" width="100" height="40" as="geometry" />
        </mxCell>
        <mxCell id="VUerpIfiDzFvoBNTNiXi-178" value="Attribute" style="ellipse;whiteSpace=wrap;html=1;align=center;dashed=1;" vertex="1" parent="1">
          <mxGeometry x="-325" y="1710" width="100" height="40" as="geometry" />
        </mxCell>
        <mxCell id="VUerpIfiDzFvoBNTNiXi-179" value="Entity" style="whiteSpace=wrap;html=1;align=center;" vertex="1" parent="1">
          <mxGeometry x="-325" y="1230" width="100" height="40" as="geometry" />
        </mxCell>
        <mxCell id="VUerpIfiDzFvoBNTNiXi-180" value="Weak Entity" style="text;html=1;align=center;verticalAlign=middle;resizable=0;points=[];autosize=1;strokeColor=none;fillColor=none;" vertex="1" parent="1">
          <mxGeometry x="-215" y="1300" width="80" height="20" as="geometry" />
        </mxCell>
        <mxCell id="VUerpIfiDzFvoBNTNiXi-181" value="partial key" style="text;html=1;align=center;verticalAlign=middle;resizable=0;points=[];autosize=1;strokeColor=none;fillColor=none;" vertex="1" parent="1">
          <mxGeometry x="-220" y="1400" width="70" height="20" as="geometry" />
        </mxCell>
        <mxCell id="VUerpIfiDzFvoBNTNiXi-182" value="Key Attr" style="text;html=1;align=center;verticalAlign=middle;resizable=0;points=[];autosize=1;strokeColor=none;fillColor=none;" vertex="1" parent="1">
          <mxGeometry x="-225" y="1520" width="60" height="20" as="geometry" />
        </mxCell>
        <mxCell id="VUerpIfiDzFvoBNTNiXi-183" value="Attr" style="text;html=1;align=center;verticalAlign=middle;resizable=0;points=[];autosize=1;strokeColor=none;fillColor=none;" vertex="1" parent="1">
          <mxGeometry x="-220" y="1460" width="30" height="20" as="geometry" />
        </mxCell>
        <mxCell id="VUerpIfiDzFvoBNTNiXi-184" value="Multivalues Attr" style="text;html=1;align=center;verticalAlign=middle;resizable=0;points=[];autosize=1;strokeColor=none;fillColor=none;" vertex="1" parent="1">
          <mxGeometry x="-225" y="1780" width="100" height="20" as="geometry" />
        </mxCell>
        <mxCell id="VUerpIfiDzFvoBNTNiXi-185" value="Derived Attr" style="text;html=1;align=center;verticalAlign=middle;resizable=0;points=[];autosize=1;strokeColor=none;fillColor=none;" vertex="1" parent="1">
          <mxGeometry x="-215" y="1720" width="80" height="20" as="geometry" />
        </mxCell>
        <mxCell id="VUerpIfiDzFvoBNTNiXi-186" value="identifying R" style="text;html=1;align=center;verticalAlign=middle;resizable=0;points=[];autosize=1;strokeColor=none;fillColor=none;" vertex="1" parent="1">
          <mxGeometry x="-210" y="1660" width="80" height="20" as="geometry" />
        </mxCell>
        <mxCell id="VUerpIfiDzFvoBNTNiXi-208" style="edgeStyle=none;rounded=0;orthogonalLoop=1;jettySize=auto;html=1;exitX=0.5;exitY=1;exitDx=0;exitDy=0;entryX=1;entryY=0.5;entryDx=0;entryDy=0;fontSize=72;endArrow=none;endFill=0;" edge="1" parent="1" source="VUerpIfiDzFvoBNTNiXi-205" target="VUerpIfiDzFvoBNTNiXi-117">
          <mxGeometry relative="1" as="geometry" />
        </mxCell>
        <mxCell id="VUerpIfiDzFvoBNTNiXi-205" value="Announce" style="shape=rhombus;perimeter=rhombusPerimeter;whiteSpace=wrap;html=1;align=center;" vertex="1" parent="1">
          <mxGeometry x="495" y="1600" width="90" height="60" as="geometry" />
        </mxCell>
        <mxCell id="VUerpIfiDzFvoBNTNiXi-210" style="edgeStyle=none;rounded=0;orthogonalLoop=1;jettySize=auto;html=1;exitX=1;exitY=0.5;exitDx=0;exitDy=0;entryX=0.5;entryY=0;entryDx=0;entryDy=0;fontSize=72;endArrow=none;endFill=0;" edge="1" parent="1" source="VUerpIfiDzFvoBNTNiXi-209" target="VUerpIfiDzFvoBNTNiXi-130">
          <mxGeometry relative="1" as="geometry" />
        </mxCell>
        <mxCell id="VUerpIfiDzFvoBNTNiXi-211" style="edgeStyle=none;rounded=0;orthogonalLoop=1;jettySize=auto;html=1;exitX=0;exitY=0.5;exitDx=0;exitDy=0;entryX=1;entryY=1;entryDx=0;entryDy=0;fontSize=72;endArrow=none;endFill=0;" edge="1" parent="1" source="VUerpIfiDzFvoBNTNiXi-209" target="VUerpIfiDzFvoBNTNiXi-117">
          <mxGeometry relative="1" as="geometry" />
        </mxCell>
        <mxCell id="VUerpIfiDzFvoBNTNiXi-209" value="Requires" style="shape=rhombus;perimeter=rhombusPerimeter;whiteSpace=wrap;html=1;align=center;" vertex="1" parent="1">
          <mxGeometry x="282" y="1680" width="90" height="60" as="geometry" />
        </mxCell>
        <mxCell id="VUerpIfiDzFvoBNTNiXi-215" value="N" style="text;html=1;align=center;verticalAlign=middle;resizable=0;points=[];autosize=1;strokeColor=none;fillColor=none;fontSize=12;" vertex="1" parent="1">
          <mxGeometry x="535" y="1560" width="20" height="20" as="geometry" />
        </mxCell>
        <mxCell id="VUerpIfiDzFvoBNTNiXi-216" value="1" style="text;html=1;align=center;verticalAlign=middle;resizable=0;points=[];autosize=1;strokeColor=none;fillColor=none;fontSize=12;" vertex="1" parent="1">
          <mxGeometry x="433.5" y="1640" width="20" height="20" as="geometry" />
        </mxCell>
      </root>
    </mxGraphModel>
  </diagram>
</mxfile>
